# xmcd
#
# Track frame offsets:
#	150
#	14621
#	32921
#	45384
#	62850
#	77556
#	94324
#	107965
#	129978
#	149506
#	164934
#	184005
#
# Disc length: 2643 seconds
#
# Revision: 1
# Processed by: cddbd v1.5.2PL0 Copyright (c) Steve Scherf et al.
# Submitted via: audiograbber 1.83.01
#
DISCID=ac0a510c
DTITLE=The Willis Clan - Chapter Two Boots
DYEAR=2014
DGENRE=Country
TTITLE0=What Can I Say
TTITLE1=Since I Left Home
TTITLE2=Nervous Breakdown
TTITLE3=Fair Weather Love
TTITLE4=Butterfly
TTITLE5=Slow Me Down
TTITLE6=Wild And Free
TTITLE7=Sadie
TTITLE8=City Down Below
TTITLE9=Grandpa's Waltz
TTITLE10=Ode To A Toad
TTITLE11=Plowin' Song
EXTD=
EXTT0=
EXTT1=
EXTT2=
EXTT3=
EXTT4=
EXTT5=
EXTT6=
EXTT7=
EXTT8=
EXTT9=
EXTT10=
EXTT11=
PLAYORDER=
